<svg xmlns="http://www.w3.org/2000/svg" width="334.845" height="224.445" viewBox="0 0 334.845 224.445">
  <g id="Layer_2" data-name="Layer 2">
    <path d="M95.477,136.551,68.913,69.414H46.594L21.16,133.787,4.949,174.814l-.393,1s15.287,0,19.261-.153,6.268-5.808,6.268-5.808l6.267-18.956H79.919s5.2,16.51,6.573,19.873a10.221,10.221,0,0,0,5.045,4.891h19.414Zm-54.066-.841.434-1.222L57.921,89.239,74.241,135.6l.037.105Z" fill="#fff" stroke="#000" stroke-miterlimit="10" stroke-width="0.5" opacity="0.2"/>
    <g>
      <path d="M18.2,217.113H14.545l-1.8-4.429H5.418l-1.8,4.429H.09l7.631-17.957h2.844Zm-6.48-6.973-2.633-6.492L6.45,210.14Z" fill="#e80e1d"/>
      <path d="M34.269,215.677a10.047,10.047,0,0,1-6.255,1.825,9.736,9.736,0,0,1-6.839-2.573,9.645,9.645,0,0,1,0-13.588,9.733,9.733,0,0,1,6.839-2.574,10.041,10.041,0,0,1,6.255,1.826v3.322A8.667,8.667,0,0,0,28.4,201.7a6.039,6.039,0,0,0-4.46,1.735,7.231,7.231,0,0,0,0,9.4,6.036,6.036,0,0,0,4.46,1.736,8.667,8.667,0,0,0,5.866-2.215Z" fill="#e80e1d"/>
      <path d="M49.233,217.113h-11.7V199.156h11.7V202h-8.05v4.22h6.554v2.843H41.183v5.208h8.05Z" fill="#e80e1d"/>
      <path d="M75.121,199.156,67.49,217.113H64.735L57.1,199.156h3.741l5.36,12.92,5.3-12.92Z" fill="#e80e1d"/>
      <path d="M91.253,217.113H87.6l-1.8-4.429H78.474l-1.8,4.429H73.146l7.631-17.957h2.845Zm-6.48-6.973-2.633-6.492-2.634,6.492Z" fill="#e80e1d"/>
      <path d="M105.2,217.113H93.5V199.156h3.651V214.27H105.2Z" fill="#e80e1d"/>
      <path d="M123.127,208.823q0,4.369-2.244,6.584a9.216,9.216,0,0,1-11.987,0q-2.259-2.214-2.259-6.584v-9.667h3.711V208.7a6.736,6.736,0,0,0,1.182,4.325,4.772,4.772,0,0,0,6.854,0,6.736,6.736,0,0,0,1.182-4.325v-9.547h3.561Z" fill="#e80e1d"/>
      <path d="M138.81,217.113h-11.7V199.156h11.7V202h-8.051v4.22h6.554v2.843h-6.554v5.208h8.051Z" fill="#e80e1d"/>
      <path d="M167.9,217.113h-3.322V206.1a8.15,8.15,0,0,1,.119-1.707l-.658,1.707-4.819,11.013h-2.244l-4.833-11.007q-.263-.631-.614-1.713l.03.749c.039.478.059.8.059.958v11.013h-3.2V199.156h3.711l5.956,13.206,6.046-13.206H167.9Z" fill="#e80e1d"/>
      <path d="M188.252,217.113H184.6l-1.8-4.429h-7.331l-1.8,4.429h-3.532l7.632-17.957h2.844Zm-6.48-6.973-2.633-6.492-2.634,6.492Z" fill="#e80e1d"/>
      <path d="M205.7,217.113h-2.544l-9.4-11.851v11.851H190.5V199.156h2.546l9.4,11.849V199.156H205.7Z" fill="#e80e1d"/>
      <path d="M226.053,217.113H222.4l-1.8-4.429h-7.331l-1.8,4.429h-3.531l7.632-17.957h2.843Zm-6.48-6.973-2.633-6.492-2.634,6.492Z" fill="#e80e1d"/>
      <path d="M243.142,215.856c-.04.02-.194.085-.464.195s-.478.194-.628.255-.4.154-.748.284-.654.234-.913.313-.589.17-.987.27-.778.179-1.138.239-.759.11-1.2.15-.868.06-1.287.06A9.493,9.493,0,0,1,229,215a9.018,9.018,0,0,1-2.768-6.868,8.7,8.7,0,0,1,2.858-6.794,9.986,9.986,0,0,1,6.928-2.574,12.857,12.857,0,0,1,3.532.494,8.546,8.546,0,0,1,2.843,1.332v3.322a9.082,9.082,0,0,0-6.016-2.215,6.182,6.182,0,0,0-4.593,1.766,6.542,6.542,0,0,0-1.751,4.818,6.664,6.664,0,0,0,1.706,4.789,5.83,5.83,0,0,0,4.429,1.795,7.434,7.434,0,0,0,3.472-.748v-3.5h-3.173v-2.694h6.674Z" fill="#e80e1d"/>
      <path d="M258.8,217.113h-11.7V199.156h11.7V202h-8.051v4.22H257.3v2.843h-6.554v5.208H258.8Z" fill="#e80e1d"/>
      <path d="M281.691,217.113h-3.322V206.1a8.131,8.131,0,0,1,.12-1.707l-.659,1.707-4.819,11.013h-2.244l-4.833-11.007q-.264-.631-.614-1.713l.029.749c.04.478.061.8.061.958v11.013h-3.2V199.156h3.711l5.957,13.206,6.044-13.206h3.772Z" fill="#e80e1d"/>
      <path d="M297.374,217.113h-11.7V199.156h11.7V202h-8.052v4.22h6.554v2.843h-6.554v5.208h8.052Z" fill="#e80e1d"/>
      <path d="M315.988,217.113h-2.544l-9.4-11.851v11.851h-3.262V199.156h2.547l9.395,11.849V199.156h3.262Z" fill="#e80e1d"/>
      <path d="M334.1,202H328.02v15.114h-3.651V202h-6.077v-2.843h15.8Z" fill="#e80e1d"/>
    </g>
    <path d="M99.64,69.4l41.627,104.516L141.7,175l.437,1.1h20.484L205.729,69.248h-19.72a11.767,11.767,0,0,0-6.573,7.338c-1.834,5.656-26.9,74.293-26.9,74.293L125.627,76.127s-2.14-6.726-7.949-6.879S99.64,69.4,99.64,69.4Z" fill="#fff" stroke="#000" stroke-miterlimit="10" stroke-width="0.5" opacity="0.2"/>
    <path d="M215.818,69.13V176.254h19.873V102.42l31.185,58.242s1.987,3.363,5.044,3.363,6.726.306,6.726.306,3.058,0,5.351-3.975,30.726-57.936,30.726-57.936V176.1H334.6V69.4H314.417s-2.752,0-5.35,5.656-33.631,65.58-33.631,65.58l-33.478-65.58s-2.14-6.115-6.267-5.962S215.818,69.13,215.818,69.13Z" fill="#fff" stroke="#000" stroke-miterlimit="10" stroke-width="0.5" opacity="0.2"/>
    <path d="M96.306,52.28,150.65,25.911V5.045h21.324V7.8h1.147l6.764-5.732,15.134,10.547s-25.8,7.8-34.51,19.262a41.3,41.3,0,0,1-6.3,2.178Z" fill="#f10b18"/>
    <path d="M183.325,0s19.261,13.529,55.605,33.478c5.962,2.866,35.2,17.541,66.153,26.6,8.828,1.835,26.828,3.555,26.828,3.555S285.363,47.58,267.134,39.439c-15.02-6.993-37.032-17.77-45.4-28.318C214.051,8.828,183.325,0,183.325,0Z" fill="#f10b18"/>
    <rect x="173.923" y="28.339" width="8.255" height="8.369" fill="#f10b18"/>
    <rect x="184.048" y="28.339" width="8.255" height="8.369" fill="#f10b18"/>
    <rect x="173.923" y="38.527" width="8.255" height="8.369" fill="#f10b18"/>
    <rect x="184.048" y="38.527" width="8.255" height="8.369" fill="#f10b18"/>
    <polygon points="1.847 190.089 332.726 180.917 332.726 188.713 1.847 190.089" fill="#f10b18"/>
    <path d="M124.237,75.335s-2.14-6.726-7.949-6.879-18.038.153-18.038.153l26.416,66.325,20.492-1.473Z" fill="#4f94e0"/>
    <path d="M151.142,150.086l-5.984-16.625-20.492,1.473,16.081,40.375h20.484l18.294-45.346L157.631,132.3C153.89,142.563,151.142,150.086,151.142,150.086Z" fill="#337dd5"/>
    <path d="M184.62,68.456a11.763,11.763,0,0,0-6.574,7.337c-1.227,3.784-12.852,35.753-20.415,56.5l21.894-2.333,24.814-61.507Z" fill="#4f94e0"/>
    <polygon points="214.429 175.462 234.301 175.462 234.301 118.906 214.429 124.08 214.429 175.462" fill="#2d80d7"/>
    <path d="M240.569,74.265s-2.14-6.115-6.268-5.962-19.872.035-19.872.035V124.08l19.872-5.174V101.628l8.12,15.164,17.528-4.563Z" fill="#4f94e0"/>
    <path d="M333.206,68.609H313.027s-2.751,0-5.35,5.656c-1.022,2.224-6.442,12.842-12.642,24.907a349.207,349.207,0,0,0,38.171-19.83Z" fill="#4f94e0"/>
    <path d="M295.035,99.172c-9.566,18.614-20.989,40.672-20.989,40.672l-14.1-27.615-17.528,4.563,23.065,43.078s1.987,3.363,5.045,3.363,6.726.306,6.726.306,3.057,0,5.35-3.975,30.726-57.936,30.726-57.936v73.681h19.873V79.342A349.207,349.207,0,0,1,295.035,99.172Z" fill="#2d80d7"/>
    <polygon points="55.921 88.739 72.241 135.105 72.263 135.105 93.477 136.051 66.913 68.914 44.594 68.914 19.16 133.287 39.845 133.988 55.921 88.739" fill="#4e95dd"/>
    <path d="M93.477,136.051,72.263,135.1h-.022l.037.105H39.411l.434-1.222-20.685-.7-16.6,42.022s15.287,0,19.261-.153,6.268-5.808,6.268-5.808l6.267-18.956H77.919s5.2,16.51,6.573,19.873a10.221,10.221,0,0,0,5.045,4.891h19.414Z" fill="#2782da"/>
  </g>
</svg>
